<svg width="194" height="66" viewBox="0 0 194 66" fill="none" xmlns="http://www.w3.org/2000/svg">
<g clip-path="url(#clip0_44_2507)">
<path d="M44.2762 45.5736C44.9453 45.5736 45.4877 45.0312 45.4877 44.3621C45.4877 43.693 44.9453 43.1506 44.2762 43.1506C43.6071 43.1506 43.0647 43.693 43.0647 44.3621C43.0647 45.0312 43.6071 45.5736 44.2762 45.5736Z" fill="#004789"/>
<path d="M47.0178 48.3144C47.6869 48.3144 48.2293 47.772 48.2293 47.1029C48.2293 46.4338 47.6869 45.8914 47.0178 45.8914C46.3487 45.8914 45.8063 46.4338 45.8063 47.1029C45.8063 47.772 46.3487 48.3144 47.0178 48.3144Z" fill="#004789"/>
<path d="M50.6151 48.9882L54.8554 53.2285C55.3286 53.7017 55.3286 54.4688 54.8554 54.9419C54.3822 55.4151 53.6151 55.4151 53.1419 54.9419L48.9016 50.7016C48.4285 50.2285 48.4285 49.4614 48.9016 48.9882C49.3748 48.515 50.1419 48.515 50.6151 48.9882Z" fill="#004789"/>
<path d="M56.7395 58.0363C57.4086 58.0363 57.951 57.4939 57.951 56.8248C57.951 56.1557 57.4086 55.6133 56.7395 55.6133C56.0704 55.6133 55.528 56.1557 55.528 56.8248C55.528 57.4939 56.0704 58.0363 56.7395 58.0363Z" fill="#004789"/>
<path d="M19.0339 48.0319C19.703 48.0319 20.2454 47.4895 20.2454 46.8204C20.2454 46.1513 19.703 45.6089 19.0339 45.6089C18.3648 45.6089 17.8224 46.1513 17.8224 46.8204C17.8224 47.4895 18.3648 48.0319 19.0339 48.0319Z" fill="#004789"/>
<path d="M16.2938 50.7758C16.9629 50.7758 17.5053 50.2334 17.5053 49.5643C17.5053 48.8952 16.9629 48.3528 16.2938 48.3528C15.6247 48.3528 15.0823 48.8952 15.0823 49.5643C15.0823 50.2334 15.6247 50.7758 16.2938 50.7758Z" fill="#004789"/>
<path d="M14.4093 53.1616L10.169 57.4019C9.69586 57.8751 8.92876 57.8751 8.45559 57.4019C7.98242 56.9287 7.98242 56.1616 8.45559 55.6885L12.6959 51.4481C13.1691 50.975 13.9362 50.975 14.4093 51.4481C14.8825 51.9213 14.8825 52.6884 14.4093 53.1616Z" fill="#004789"/>
<path d="M24.2014 41.1244L23.6098 40.5327L20.9188 43.2236C20.4457 43.6968 20.4457 44.4639 20.9188 44.9371C21.392 45.4103 22.1591 45.4103 22.6323 44.9371L25.3976 42.1717C24.9822 41.8535 24.5819 41.5041 24.2022 41.1244H24.2014Z" fill="#004789"/>
<path fill-rule="evenodd" clip-rule="evenodd" d="M52.123 57.9405L38.6615 44.479L37.3977 45.7428L50.8592 59.2043C51.2085 59.5529 51.7744 59.5529 52.123 59.2043C52.4716 58.8549 52.4716 58.2891 52.123 57.9405Z" fill="#00A0B0"/>
<path fill-rule="evenodd" clip-rule="evenodd" d="M28.3009 43.8081L14.1909 57.9182C13.8415 58.2676 13.8415 58.8334 14.1909 59.182C14.5402 59.5306 15.1061 59.5314 15.4547 59.182L30.2498 44.3868C29.5883 44.2501 28.9359 44.0572 28.3009 43.8081Z" fill="#00A0B0"/>
<path fill-rule="evenodd" clip-rule="evenodd" d="M20.3992 37.3196L6.99474 50.7241C6.64612 51.0727 6.64612 51.6385 6.99474 51.9879C7.34411 52.3373 7.90994 52.3373 8.25855 51.9879L21.663 38.5834L20.3992 37.3196Z" fill="#00A0B0"/>
<path fill-rule="evenodd" clip-rule="evenodd" d="M33.3899 44.6167C30.0952 44.8104 26.7253 43.6468 24.203 41.1245L3.72595 20.6475C-0.957153 15.9644 -0.957153 8.37088 3.72595 3.68701C8.40982 -0.99609 16.0026 -0.99609 20.6864 3.68701L33.0694 16.07L45.6271 3.51233C50.3102 -1.17078 57.9037 -1.17078 62.5876 3.51233C67.2714 8.19543 67.2707 15.789 62.5876 20.4728L41.9564 41.104C39.5928 43.4668 36.4834 44.638 33.3907 44.616L33.3899 44.6167ZM33.0686 20.1819L18.6305 5.74299C15.0821 2.19459 9.32958 2.19459 5.78193 5.74299C2.23353 9.29064 2.23353 15.0439 5.78193 18.5915L26.2589 39.0685C28.1934 41.0037 30.7841 41.8833 33.3155 41.7078C35.6943 41.7496 38.0859 40.8632 39.9004 39.048L60.5316 18.4168C64.0792 14.8684 64.0792 9.11595 60.5316 5.56831C56.9832 2.0199 51.2307 2.0199 47.683 5.56831L33.0702 20.1812L33.0686 20.1819Z" fill="#004789"/>
<path fill-rule="evenodd" clip-rule="evenodd" d="M58.4504 8.08768C56.1005 5.73777 52.2901 5.73777 49.9394 8.08768L33.5364 24.4907L17.0627 8.0178C14.7128 5.66789 10.9024 5.66789 8.55174 8.0178C6.20183 10.3677 6.20183 14.1781 8.55174 16.5288L29.1928 37.1691C29.5012 37.4775 29.8346 37.7441 30.1862 37.9711C32.527 39.5562 35.7367 39.3132 37.8101 37.2397L58.4512 16.5987C60.8019 14.2488 60.8019 10.4383 58.4512 8.08768H58.4504ZM10.2652 9.73049C11.6695 8.32616 13.9457 8.32616 15.3501 9.73049L31.8237 26.2041L29.2991 28.7287C28.3376 29.6903 27.7702 30.8956 27.5956 32.145L10.2652 14.8154C8.86086 13.411 8.86086 11.1348 10.2652 9.73049ZM35.9904 35.4557C34.7759 36.6701 32.9098 36.8334 31.5192 35.9471C31.3407 35.824 31.1705 35.6843 31.0118 35.5263C29.6075 34.122 29.6075 31.8457 31.0118 30.4414L33.5364 27.9168L35.9904 30.3708C37.3947 31.7751 37.3947 34.0513 35.9904 35.4557ZM56.737 14.8852L39.4218 32.2004C39.2684 30.9055 38.6965 29.6515 37.703 28.6581L35.2491 26.2041L51.6521 9.80112C53.0564 8.39679 55.3327 8.39679 56.737 9.80112C58.1413 11.2054 58.1413 13.4817 56.737 14.886V14.8852Z" fill="#00A0B0"/>
<path d="M41.154 26.6803C41.8231 26.6803 42.3655 26.1379 42.3655 25.4688C42.3655 24.7997 41.8231 24.2573 41.154 24.2573C40.4849 24.2573 39.9425 24.7997 39.9425 25.4688C39.9425 26.1379 40.4849 26.6803 41.154 26.6803Z" fill="#004789"/>
<path d="M43.8952 23.9398C44.5643 23.9398 45.1067 23.3974 45.1067 22.7283C45.1067 22.0593 44.5643 21.5168 43.8952 21.5168C43.2261 21.5168 42.6837 22.0593 42.6837 22.7283C42.6837 23.3974 43.2261 23.9398 43.8952 23.9398Z" fill="#004789"/>
<path d="M46.6359 21.1972C47.305 21.1972 47.8474 20.6548 47.8474 19.9857C47.8474 19.3166 47.305 18.7742 46.6359 18.7742C45.9668 18.7742 45.4244 19.3166 45.4244 19.9857C45.4244 20.6548 45.9668 21.1972 46.6359 21.1972Z" fill="#004789"/>
<path d="M48.5209 16.3899L52.7612 12.1496C53.2344 11.6764 54.0015 11.6764 54.4746 12.1496C54.9478 12.6227 54.9478 13.3898 54.4746 13.863L50.2343 18.1033C49.7612 18.5765 48.9941 18.5765 48.5209 18.1033C48.0477 17.6301 48.0477 16.863 48.5209 16.3899Z" fill="#004789"/>
<path fill-rule="evenodd" clip-rule="evenodd" d="M12.5856 12.0117C12.9638 11.6335 13.5775 11.6335 13.9557 12.0117L27.8744 25.9304C28.2526 26.3086 28.2526 26.9223 27.8744 27.3013C27.4962 27.6803 26.8825 27.6795 26.5042 27.3013L12.5856 13.3826C12.2073 13.0044 12.2073 12.3907 12.5856 12.0125V12.0117Z" fill="#004789"/>
<path fill-rule="evenodd" clip-rule="evenodd" d="M45.8162 37.2424L44.5524 38.5062L58.0541 52.008C58.4035 52.3573 58.9693 52.3573 59.3179 52.008C59.6673 51.6586 59.6673 51.0935 59.3179 50.7441L45.8162 37.2424Z" fill="#00A0B0"/>
<path fill-rule="evenodd" clip-rule="evenodd" d="M50.0659 32.9919L48.0099 35.0479L60.1673 47.2053C63.7157 50.7537 63.7157 56.5062 60.1673 60.0539C56.6197 63.6023 50.8664 63.6023 47.3188 60.0539L35.2016 47.9367L41.5215 41.6169C41.8002 41.3381 42.063 41.048 42.3083 40.7495L41.9559 41.1019C41.886 41.1718 41.8154 41.2402 41.744 41.3085C41.7205 41.3313 41.6962 41.3533 41.6726 41.3754C41.6248 41.4202 41.5769 41.465 41.5283 41.509C41.4994 41.5349 41.4706 41.5607 41.4417 41.5865C41.3977 41.626 41.3536 41.6647 41.3088 41.7035C41.2777 41.73 41.2465 41.7566 41.2154 41.7832C41.1721 41.8197 41.1288 41.8561 41.0855 41.8918C41.0529 41.9184 41.021 41.945 40.9883 41.9708C40.945 42.0057 40.9017 42.0399 40.8584 42.0741C40.8258 42.0999 40.7923 42.1257 40.7589 42.1516C40.7149 42.185 40.6701 42.2184 40.626 42.2518C40.5934 42.2761 40.5599 42.3012 40.5273 42.3255C40.4802 42.3597 40.4331 42.3931 40.386 42.4265C40.3549 42.4485 40.3237 42.4713 40.2926 42.4926C40.2227 42.5412 40.1528 42.5883 40.0822 42.6346C40.0427 42.6604 40.0025 42.6863 39.963 42.7121C39.9174 42.7417 39.8718 42.7706 39.8263 42.7994C39.786 42.8245 39.745 42.8488 39.7047 42.8739C39.6652 42.8982 39.6257 42.9225 39.5855 42.946C39.5422 42.9718 39.4997 42.9961 39.4564 43.0212C39.4184 43.0432 39.3812 43.0645 39.3432 43.0858C39.2984 43.1108 39.2528 43.1359 39.2073 43.1609C39.1716 43.1807 39.1351 43.1997 39.0994 43.2187C39.0523 43.2437 39.0045 43.2688 38.9574 43.2931C38.924 43.3106 38.8898 43.3273 38.8564 43.3447C38.8062 43.3698 38.7561 43.3949 38.706 43.4192C38.6764 43.4336 38.646 43.4473 38.6164 43.4617C38.5617 43.4875 38.507 43.5134 38.4523 43.5384C38.4341 43.5468 38.4159 43.5544 38.3984 43.5627C38.1812 43.6607 37.9609 43.7518 37.7391 43.8362C37.7323 43.8384 37.7255 43.8415 37.7186 43.8437C37.651 43.8696 37.5834 43.8939 37.5158 43.9182C37.4984 43.9243 37.4809 43.9311 37.4627 43.9372C37.3974 43.96 37.332 43.982 37.266 44.004C37.2462 44.0108 37.2272 44.0169 37.2075 44.0237C37.1414 44.045 37.0753 44.0663 37.0093 44.0868C36.991 44.0921 36.9728 44.0982 36.9538 44.1035C36.8855 44.124 36.8171 44.1445 36.748 44.1635C36.7343 44.1673 36.7199 44.1711 36.7062 44.1749C36.6325 44.1954 36.5589 44.2159 36.4844 44.2349C36.4829 44.2349 36.4806 44.2357 36.4791 44.2364C36.0637 44.3435 35.6429 44.4278 35.2206 44.4901C35.2206 44.4901 35.2191 44.4901 35.2183 44.4901C35.1371 44.5022 35.0558 44.5129 34.9738 44.5235C34.9677 44.5235 34.9616 44.525 34.9563 44.5258C34.8766 44.5357 34.7961 44.5448 34.7155 44.5531C34.7095 44.5531 34.7042 44.5546 34.6981 44.5546C34.6161 44.563 34.534 44.5706 34.4512 44.5774L33.1449 45.8838L31.0889 47.9398L18.9923 60.0364C15.4439 63.5848 9.69139 63.5848 6.14375 60.0364C2.59534 56.488 2.59534 50.7355 6.14375 47.1878L18.2039 35.1277L16.1479 33.0717L4.08777 45.1319C-0.595337 49.815 -0.595337 57.4085 4.08777 62.0924C8.77163 66.7755 16.3644 66.7755 21.0483 62.0924L33.1449 49.9957L45.262 62.1129C49.9459 66.796 57.5387 66.796 62.2225 62.1129C66.9056 57.429 66.9056 49.8362 62.2225 45.1524L50.0651 32.995L50.0659 32.9919Z" fill="#004789"/>
</g>
<path d="M97.0254 35.6703C96.2653 36.2231 95.6204 36.1309 95.0907 35.3939L89.8394 28.277L84.899 36.0503C84.6226 36.4879 84.3347 36.7413 84.0353 36.8104C83.7359 36.8795 83.3789 36.7758 82.9643 36.4994L80.8569 35.1175C80.4423 34.8411 80.212 34.5417 80.1659 34.2193C80.1199 33.8968 80.212 33.5513 80.4423 33.1828L86.4537 23.7167L80.5114 15.6324C79.9817 14.8724 80.0853 14.2275 80.8223 13.6977L82.6188 12.3849C83.3559 11.8321 84.0008 11.9243 84.5535 12.6613L89.8394 19.8127L94.7452 12.074C94.9986 11.6824 95.2865 11.4636 95.6089 11.4175C95.9544 11.3485 96.3229 11.4521 96.7144 11.7285L98.7873 13.1104C99.1789 13.3638 99.4092 13.6517 99.4783 13.9741C99.5704 14.2735 99.4898 14.619 99.2365 15.0105L93.2596 24.4076L99.1328 32.3882C99.6856 33.1483 99.5819 33.8047 98.8219 34.3575L97.0254 35.6703ZM104.619 16.6689C103.836 16.6689 103.145 16.381 102.547 15.8052C101.971 15.2063 101.683 14.5038 101.683 13.6977C101.683 12.8916 101.971 12.2006 102.547 11.6248C103.145 11.049 103.836 10.7611 104.619 10.7611C105.426 10.7611 106.117 11.049 106.692 11.6248C107.268 12.2006 107.556 12.8916 107.556 13.6977C107.556 14.5038 107.268 15.2063 106.692 15.8052C106.117 16.381 105.426 16.6689 104.619 16.6689ZM107.038 34.2538C107.038 35.1751 106.577 35.6357 105.656 35.6357H103.583C102.662 35.6357 102.201 35.1751 102.201 34.2538V20.4346C102.201 19.5133 102.662 19.0527 103.583 19.0527H105.656C106.577 19.0527 107.038 19.5133 107.038 20.4346V34.2538ZM125.745 34.9448C125.745 35.8661 125.284 36.3267 124.363 36.3267H122.29C121.368 36.3267 120.908 35.8661 120.908 34.9448V26.6878C120.908 25.398 120.666 24.4537 120.182 23.8549C119.722 23.233 119.077 22.9221 118.248 22.9221C117.119 22.9221 116.29 23.2906 115.76 24.0276C115.253 24.7646 115 25.9393 115 27.5515V34.2538C115 35.1751 114.539 35.6357 113.618 35.6357H111.545C110.624 35.6357 110.163 35.1751 110.163 34.2538V18.3617C110.163 17.4404 110.624 16.9798 111.545 16.9798H113.618C114.539 16.9798 115 17.4404 115 18.3617V20.7801C115.599 19.8358 116.336 19.1333 117.211 18.6726C118.086 18.189 118.985 17.9471 119.906 17.9471C121.104 17.9471 122.163 18.235 123.084 18.8108C124.029 19.3866 124.731 20.2964 125.192 21.5401C125.791 20.4576 126.574 19.663 127.541 19.1563C128.531 18.6266 129.568 18.3617 130.65 18.3617C132.332 18.3617 133.725 18.9375 134.831 20.0891C135.936 21.2177 136.489 23.0372 136.489 25.5477V34.2538C136.489 35.1751 136.028 35.6357 135.107 35.6357H133.034C132.113 35.6357 131.652 35.1751 131.652 34.2538V27.1024C131.652 25.8126 131.41 24.8683 130.927 24.2694C130.466 23.6476 129.821 23.3366 128.992 23.3366C127.863 23.3366 127.034 23.7051 126.505 24.4422C125.998 25.1792 125.745 26.3538 125.745 27.9661V34.9448ZM147.569 36.0503C145.75 36.0503 144.161 35.6703 142.802 34.9102C141.443 34.1502 140.383 33.0907 139.623 31.7318C138.886 30.3499 138.518 28.7722 138.518 26.9987C138.518 25.3404 138.84 23.8318 139.485 22.4729C140.13 21.091 141.097 19.997 142.387 19.1909C143.677 18.3617 145.278 17.9471 147.189 17.9471C148.687 17.9471 149.988 18.2696 151.093 18.9145C152.222 19.5363 153.097 20.4346 153.719 21.6092C154.341 22.7608 154.652 24.1428 154.652 25.755C154.652 26.446 154.571 26.9527 154.41 27.2751C154.272 27.5976 153.903 27.7933 153.304 27.8624L143.666 28.968C144.011 29.728 144.564 30.3499 145.324 30.8336C146.084 31.3172 147.051 31.5591 148.226 31.5591C148.894 31.5591 149.573 31.3978 150.264 31.0754C150.978 30.7529 151.623 30.4305 152.199 30.1081C152.452 29.9468 152.694 29.9353 152.924 30.0735C153.178 30.1887 153.362 30.4075 153.477 30.7299L154.168 32.5264C154.283 32.8489 154.352 33.1137 154.375 33.321C154.421 33.5283 154.306 33.7471 154.03 33.9774C153.178 34.6454 152.164 35.1636 150.99 35.5321C149.815 35.8776 148.675 36.0503 147.569 36.0503ZM146.844 22.4384C145.946 22.4384 145.209 22.6572 144.633 23.0948C144.057 23.5094 143.666 24.2234 143.458 25.2368L149.677 24.5113C149.516 23.8894 149.182 23.3942 148.675 23.0257C148.191 22.6342 147.581 22.4384 146.844 22.4384ZM161.593 34.9448C161.593 35.8661 161.132 36.3267 160.211 36.3267H158.138C157.217 36.3267 156.756 35.8661 156.756 34.9448V18.3617C156.756 17.4404 157.217 16.9798 158.138 16.9798H160.211C161.132 16.9798 161.593 17.4404 161.593 18.3617V20.9528C162.261 19.9394 163.09 19.1909 164.08 18.7072C165.071 18.2005 166.049 17.9471 167.017 17.9471C168.698 17.9471 170.092 18.5229 171.197 19.6745C172.303 20.8031 172.855 22.6226 172.855 25.1331V34.2538C172.855 35.1751 172.395 35.6357 171.473 35.6357H169.401C168.479 35.6357 168.019 35.1751 168.019 34.2538V26.6878C168.019 25.421 167.777 24.4882 167.293 23.8894C166.833 23.2675 166.188 22.9566 165.358 22.9566C164.598 22.9566 163.93 23.1178 163.355 23.4403C162.802 23.7627 162.364 24.2694 162.042 24.9604C161.742 25.6283 161.593 26.492 161.593 27.5515V34.9448ZM189.398 36.6722H186.634C185.943 36.6722 185.598 36.3267 185.598 35.6357V34.1502C185.068 34.6799 184.423 35.106 183.663 35.4285C182.903 35.7509 182.143 35.9467 181.383 36.0158C181.176 36.0388 180.98 36.0503 180.796 36.0503C179.621 36.0503 178.573 35.8085 177.652 35.3248C176.753 34.8181 176.051 34.1387 175.544 33.2865C175.038 32.4113 174.784 31.4324 174.784 30.3499C174.784 29.3365 175.003 28.4037 175.441 27.5515C175.901 26.6993 176.627 26.0199 177.617 25.5132C178.607 24.9834 179.897 24.7186 181.486 24.7186C182.154 24.7186 182.845 24.7992 183.559 24.9604C184.273 25.1216 184.953 25.3404 185.598 25.6168C185.598 25.5016 185.586 25.398 185.563 25.3059C185.54 25.1907 185.517 25.0756 185.494 24.9604C185.31 24.1312 184.918 23.5094 184.319 23.0948C183.721 22.6572 182.949 22.4384 182.005 22.4384C181.36 22.4384 180.68 22.5535 179.966 22.7839C179.275 23.0142 178.596 23.3366 177.928 23.7512C177.444 24.0506 177.018 23.8433 176.65 23.1293L176.166 22.1274L175.648 21.1256C175.602 21.0334 175.556 20.9413 175.51 20.8492C175.464 20.757 175.429 20.6649 175.406 20.5728C175.337 20.2273 175.464 19.9279 175.786 19.6745C176.592 19.0296 177.594 18.5229 178.792 18.1544C179.989 17.7859 181.245 17.6017 182.557 17.6017C184.976 17.6017 186.887 18.3041 188.292 19.7091C189.72 21.114 190.434 23.0487 190.434 25.5132V35.6357C190.434 35.7509 190.423 35.8545 190.4 35.9467C190.377 36.0388 190.354 36.1309 190.331 36.2231C190.17 36.5225 189.859 36.6722 189.398 36.6722ZM182.005 31.7318C182.465 31.7318 182.938 31.6742 183.421 31.5591C183.905 31.4209 184.331 31.2366 184.699 31.0063C185.068 30.776 185.321 30.4881 185.46 30.1426C185.506 30.0505 185.54 29.9583 185.563 29.8662C185.586 29.7511 185.598 29.6359 185.598 29.5207V29.3825C185.022 29.1522 184.412 28.9795 183.767 28.8643C183.145 28.7492 182.557 28.6916 182.005 28.6916C181.222 28.6916 180.623 28.8183 180.208 29.0716C179.817 29.325 179.621 29.705 179.621 30.2117C179.621 30.6954 179.851 31.0754 180.312 31.3518C180.796 31.6051 181.36 31.7318 182.005 31.7318Z" fill="#004789"/>
<path d="M83.6782 52.9885H82.6122C82.4701 52.9885 82.3635 52.9631 82.2924 52.9124C82.2315 52.8515 82.1605 52.7398 82.0792 52.5774L78.0285 43.4098C77.9574 43.2474 77.9371 43.1205 77.9676 43.0291C78.0082 42.9276 78.1198 42.8565 78.3026 42.8159L79.0792 42.6484C79.262 42.6078 79.399 42.6078 79.4904 42.6484C79.5818 42.689 79.6731 42.8109 79.7645 43.0139L82.9777 50.3997L85.0792 42.7398C85.13 42.5469 85.2061 42.4251 85.3077 42.3743C85.4092 42.3134 85.5412 42.3083 85.7036 42.3591L86.6478 42.618C86.8204 42.6586 86.9219 42.7246 86.9523 42.8159C86.9929 42.9073 86.9879 43.0393 86.9371 43.2119L84.196 52.5774C84.1452 52.7398 84.0792 52.8515 83.998 52.9124C83.9269 52.9631 83.8204 52.9885 83.6782 52.9885ZM93.1772 52.684C93.1772 53.0393 92.9995 53.217 92.6442 53.217H91.9589C91.6036 53.217 91.4259 53.0393 91.4259 52.684V43.09C91.4259 42.7347 91.6036 42.5571 91.9589 42.5571H92.6442C92.9995 42.5571 93.1772 42.7347 93.1772 43.09V52.684ZM103.698 52.9733L98.8708 52.7601C98.5257 52.7601 98.3531 52.5824 98.3531 52.2271V43.3185C98.3531 42.9631 98.5307 42.7855 98.8861 42.7855H99.5713C99.9267 42.7855 100.104 42.9631 100.104 43.3185V51.0697L103.683 51.2373C103.866 51.2474 103.998 51.2931 104.079 51.3743C104.17 51.4555 104.216 51.5875 104.216 51.7703V52.4555C104.216 52.821 104.043 52.9936 103.698 52.9733ZM114.077 49.3794L112.173 45.3895L110.924 49.3794H114.077ZM109.828 52.9124C109.767 53.1053 109.686 53.222 109.584 53.2626C109.493 53.3134 109.361 53.3236 109.188 53.2931L108.305 53.0951C108.122 53.0545 108.011 52.9936 107.97 52.9124C107.94 52.821 107.95 52.689 108.001 52.5164L111.031 43.2423C111.102 43.0494 111.178 42.9276 111.259 42.8769C111.341 42.8159 111.468 42.7855 111.64 42.7855H112.584C112.686 42.7855 112.762 42.7956 112.813 42.8159C112.863 42.8362 112.904 42.8819 112.935 42.953C112.975 43.0139 113.026 43.1104 113.087 43.2423L117.442 52.3032C117.523 52.4758 117.539 52.6078 117.488 52.6992C117.447 52.7804 117.336 52.8413 117.153 52.8819L116.33 53.0494C116.148 53.0799 116.011 53.0748 115.919 53.0342C115.828 52.9936 115.737 52.8718 115.645 52.6687L114.853 51.0088H110.422L109.828 52.9124ZM129.508 52.684C129.508 53.0393 129.331 53.217 128.975 53.217H128.336C127.98 53.217 127.803 53.0393 127.803 52.684V43.3185C127.803 42.9631 127.98 42.7855 128.336 42.7855H133.513C133.869 42.7855 134.046 42.9631 134.046 43.3185V44.019C134.046 44.3642 133.874 44.5367 133.529 44.5367H129.508V47.4149H132.904C133.26 47.4149 133.437 47.5926 133.437 47.9479V48.6484C133.437 48.9936 133.265 49.1662 132.92 49.1662H129.508V52.684ZM138.949 52.9885C138.584 52.9885 138.406 52.8109 138.416 52.4555L138.645 43.3185C138.645 42.9631 138.822 42.7855 139.178 42.7855H144.203C144.558 42.7855 144.736 42.9631 144.736 43.3185V44.019C144.736 44.3642 144.564 44.5367 144.218 44.5367H140.32L140.259 47.0342L143.594 46.8667C143.949 46.8362 144.127 47.0139 144.127 47.3997V48.1002C144.127 48.4149 143.954 48.5875 143.609 48.618L140.213 48.8007L140.152 51.2373H144.203C144.558 51.2373 144.736 51.4149 144.736 51.7703V52.4708C144.736 52.8159 144.564 52.9885 144.218 52.9885H138.949ZM155.862 53.2779C155.73 53.3083 155.624 53.3185 155.543 53.3083C155.472 53.2982 155.406 53.2576 155.345 53.1865C155.284 53.1154 155.213 53.0088 155.131 52.8667L153.35 49.8058C153.167 49.8362 152.969 49.8616 152.756 49.8819C152.553 49.8921 152.34 49.8972 152.116 49.8972H151.218V52.5317C151.218 52.887 151.04 53.0647 150.685 53.0647H149.999C149.644 53.0647 149.466 52.887 149.466 52.5317V43.3185C149.466 42.9631 149.644 42.7855 149.999 42.7855H152.116C153.548 42.7855 154.644 43.09 155.406 43.6992C156.167 44.2982 156.548 45.1814 156.548 46.3489C156.548 47.7093 156.02 48.689 154.964 49.288L156.746 52.4555C156.928 52.8007 156.837 53.019 156.472 53.1104L155.862 53.2779ZM152.177 44.6129H151.218V48.0697H152.177C153.091 48.0697 153.756 47.9124 154.172 47.5977C154.588 47.2829 154.796 46.8667 154.796 46.3489C154.796 45.8109 154.588 45.3895 154.172 45.085C153.756 44.7703 153.091 44.6129 152.177 44.6129ZM167.816 53.2779C167.684 53.3083 167.578 53.3185 167.496 53.3083C167.425 53.2982 167.359 53.2576 167.298 53.1865C167.237 53.1154 167.166 53.0088 167.085 52.8667L165.303 49.8058C165.121 49.8362 164.923 49.8616 164.71 49.8819C164.506 49.8921 164.293 49.8972 164.07 49.8972H163.171V52.5317C163.171 52.887 162.994 53.0647 162.638 53.0647H161.953C161.598 53.0647 161.42 52.887 161.42 52.5317V43.3185C161.42 42.9631 161.598 42.7855 161.953 42.7855H164.07C165.501 42.7855 166.598 43.09 167.359 43.6992C168.121 44.2982 168.501 45.1814 168.501 46.3489C168.501 47.7093 167.973 48.689 166.918 49.288L168.699 52.4555C168.882 52.8007 168.791 53.019 168.425 53.1104L167.816 53.2779ZM164.131 44.6129H163.171V48.0697H164.131C165.045 48.0697 165.71 47.9124 166.126 47.5977C166.542 47.2829 166.75 46.8667 166.75 46.3489C166.75 45.8109 166.542 45.3895 166.126 45.085C165.71 44.7703 165.045 44.6129 164.131 44.6129ZM178.765 49.3794L176.861 45.3895L175.612 49.3794H178.765ZM174.516 52.9124C174.455 53.1053 174.374 53.222 174.272 53.2626C174.181 53.3134 174.049 53.3236 173.876 53.2931L172.993 53.0951C172.81 53.0545 172.699 52.9936 172.658 52.9124C172.628 52.821 172.638 52.689 172.689 52.5164L175.719 43.2423C175.79 43.0494 175.866 42.9276 175.947 42.8769C176.029 42.8159 176.156 42.7855 176.328 42.7855H177.272C177.374 42.7855 177.45 42.7956 177.501 42.8159C177.552 42.8362 177.592 42.8819 177.623 42.953C177.663 43.0139 177.714 43.1104 177.775 43.2423L182.13 52.3032C182.211 52.4758 182.227 52.6078 182.176 52.6992C182.135 52.7804 182.024 52.8413 181.841 52.8819L181.019 53.0494C180.836 53.0799 180.699 53.0748 180.607 53.0342C180.516 52.9936 180.425 52.8718 180.333 52.6687L179.541 51.0088H175.11L174.516 52.9124ZM191.967 52.9733L187.139 52.7601C186.794 52.7601 186.621 52.5824 186.621 52.2271V43.3185C186.621 42.9631 186.799 42.7855 187.154 42.7855H187.84C188.195 42.7855 188.373 42.9631 188.373 43.3185V51.0697L191.951 51.2373C192.134 51.2474 192.266 51.2931 192.347 51.3743C192.439 51.4555 192.484 51.5875 192.484 51.7703V52.4555C192.484 52.821 192.312 52.9936 191.967 52.9733Z" fill="#004789"/>
<defs>
<clipPath id="clip0_44_2507">
<rect width="65.8863" height="65.6242" fill="white" transform="translate(0.212524)"/>
</clipPath>
</defs>
</svg>
